<?xml version="1.0"?>
<svg xmlns="http://www.w3.org/2000/svg" height="512px" viewBox="0 -61 512 512" width="512px"><g><path d="m182 225c0 90.980469 74.019531 165 165 165s165-74.019531 165-165c0-85.925781-66.023438-156.707031-150-164.3125v-30.6875h30v-30h-90v30h30v30.6875c-83.976562 7.605469-150 78.386719-150 164.3125zm300 0c0 74.4375-60.5625 135-135 135s-135-60.5625-135-135 60.5625-135 135-135 135 60.5625 135 135zm0 0" data-original="#000000" class="active-path" data-old_color="#000000" fill="#3C438F"/><path d="m332 120v120h120v-30h-90v-90zm0 0" data-original="#000000" class="active-path" data-old_color="#000000" fill="#3C438F"/><path d="m0 210h122v30h-122zm0 0" data-original="#000000" class="active-path" data-old_color="#000000" fill="#3C438F"/><path d="m30 120h122v30h-122zm0 0" data-original="#000000" class="active-path" data-old_color="#000000" fill="#3C438F"/><path d="m30 300h122v30h-122zm0 0" data-original="#000000" class="active-path" data-old_color="#000000" fill="#3C438F"/></g> </svg>
