<?xml version="1.0"?>
<svg xmlns="http://www.w3.org/2000/svg" id="Layer_3" enable-background="new 0 0 64 64" height="512px" viewBox="0 0 64 64" width="512px"><g><g><path d="m39.268 43h-.292c-.86 0-1.7.3-2.364.844l-7.664 6.271c-.216-1.206-1.084-2.199-2.295-2.562l-7.1-2.13c-.933-.281-1.9-.423-2.874-.423h-.246c-1.769 0-3.511.471-5.039 1.362l-9.898 5.773c-.307.18-.496.51-.496.865v9c0 .312.146.605.393.795.176.135.39.205.607.205.088 0 .176-.012.263-.035l10.871-2.965h15.866c.236 0 .465-.084.646-.236l12.032-10.182c.84-.71 1.322-1.749 1.322-2.85 0-2.057-1.674-3.732-3.732-3.732zm1.119 5.055-11.753 9.945h-15.634c-.089 0-.177.012-.263.035l-9.737 2.655v-7.116l9.402-5.484c1.222-.713 2.616-1.09 4.031-1.09h.246c.779 0 1.552.113 2.299.338l7.1 2.13c.551.165.922.663.922 1.238 0 .714-.58 1.294-1.293 1.294h-6.707v2h8c.231 0 .455-.08.633-.226l10.246-8.383c.308-.252.697-.391 1.097-.391h.292c.955 0 1.732.777 1.732 1.732 0 .511-.224.994-.613 1.323z" data-original="#000000" class="active-path" data-old_color="#000000" fill="#3C438F"/><path d="m62 8h-4.657l-8.729-6.789c-.176-.137-.392-.211-.614-.211h-27c-2.206 0-4 1.794-4 4s1.794 4 4 4h9.919l-2.7 3.375c-.142.178-.219.397-.219.625v2h-2c-1.654 0-3 1.346-3 3v4c0 1.654 1.346 3 3 3v2h-3c-.552 0-1 .447-1 1v6c0 .553.448 1 1 1h1v8c0 .266.105.52.293.707l2 2c.195.195.451.293.707.293s.512-.098.707-.293l2-2c.188-.187.293-.441.293-.707v-2c0-.155-.036-.309-.105-.447l-.777-1.553.776-1.553c.07-.138.106-.292.106-.447v-2h1c.552 0 1-.447 1-1v-6c0-.553-.448-1-1-1h-3v-2h10c1.654 0 3-1.346 3-3v-.142c.322.084.653.142 1 .142h20c.552 0 1-.447 1-1v-12c0-.553-.448-1-1-1zm-34 28.764-.895 1.789c-.141.281-.141.613 0 .895l.895 1.788v1.35l-1 1-1-1v-7.586h2zm2-3.764h-6v-4h6zm8-10h-12c-.551 0-1-.448-1-1v-4c0-.552.449-1 1-1h12.142c-.084.322-.142.653-.142 1 0 1.005.385 1.914 1 2.618v1.382c0 .552-.449 1-1 1zm1.382-8h-3.382v-.638l4.468-5.362h4.118l2.414 2.414v2.586h-5c-1.005 0-1.914.385-2.618 1zm21.618 5h-19c-1.103 0-2-.897-2-2s.897-2 2-2h6c.552 0 1-.447 1-1v-4c0-.266-.105-.52-.293-.707l-3-3c-.187-.188-.442-.293-.707-.293h-5c-.297 0-.578.132-.768.359l-5 6c-.15.18-.232.407-.232.641v1h-4v-1.649l3.781-4.726c.24-.301.287-.712.121-1.059-.167-.345-.518-.566-.902-.566h-12c-1.103 0-2-.897-2-2s.897-2 2-2h26.657l8.729 6.789c.176.137.392.211.614.211h4z" data-original="#000000" class="active-path" data-old_color="#000000" fill="#3C438F"/></g></g> </svg>
