<svg id="Layer_1" enable-background="new 0 0 512 512" height="512" viewBox="0 0 512 512" width="512" xmlns="http://www.w3.org/2000/svg"><path d="m130 344c-8.822 0-16 7.178-16 16s7.178 16 16 16 16-7.178 16-16-7.178-16-16-16z"/><path d="m372 344c-8.822 0-16 7.178-16 16s7.178 16 16 16 16-7.178 16-16-7.178-16-16-16z"/><path d="m512 227c0-69.622-60.223-139-143.223-139h-320.777c-26.467 0-48 21.533-48 48v184c0 26.467 21.532 48 48 48h18.518c3.951 31.525 30.903 56 63.482 56 32.39 0 59.473-24.264 63.467-55.958 34.876 0 80.201-.042 115.051-.042 3.951 31.525 30.903 56 63.482 56s59.531-24.475 63.482-56h28.518c26.467 0 48-21.533 48-48-.002-10 0-92.718 0-93zm-382 181c-26.468 0-48-21.533-48-48s21.532-48 48-48 48 21.533 48 48-21.532 48-48 48zm204-147h16c4.418 0 8 3.582 8 8s-3.582 8-8 8h-16c-4.418 0-8-3.582-8-8s3.582-8 8-8zm38 147c-26.468 0-48-21.533-48-48s21.532-48 48-48 48 21.533 48 48-21.532 48-48 48zm1.049-189c-16.067 0-28.019-14.803-24.681-30.486l5.857-27.532c2.463-11.578 12.843-19.982 24.682-19.982h79.583c21.481 21.434 34.098 49.171 36.908 78zm122.951 81h-26c-4.411 0-8-3.589-8-8s3.589-8 8-8h26z"/></svg>