<?xml version="1.0"?>
<svg xmlns="http://www.w3.org/2000/svg" height="512px" viewBox="1 -64 511.999 511" width="512px" class=""><g><path d="m488.476562 186.613281h-70.671874l-39.765626-28.128906v-46.84375c17.230469-12.03125 28.535157-31.996094 28.535157-54.558594 0-21.03125-10.121094-41.050781-27.082031-53.550781-3.382813-2.496094-7.808594-2.871094-11.550782-.980469-3.71875 1.878907-6.027344 5.636719-6.027344 9.808594v29.480469c0 3.960937-3.222656 7.183594-7.183593 7.183594h-28.164063c-3.960937 0-7.179687-3.222657-7.179687-7.183594v-30.339844c0-4.109375-2.265625-7.84375-5.902344-9.746094-3.664063-1.910156-8.046875-1.625-11.445313.746094-18.03125 12.582031-28.683593 33.210938-28.488281 55.179688.15625 17.757812 7.121094 34.351562 19.609375 46.726562 2.777344 2.75 5.769532 5.210938 8.925782 7.398438v24.382812h-75.640626c-10.796874 0-21.402343 3.695312-29.863281 10.410156l-50.421875 40.011719h-15.40625c-10.359375 0-20.6875 1.363281-30.695312 4.042969l-74.578125 19.976562c-15.003907 3.96875-25.480469 17.578125-25.480469 33.09375v51.847656c0 10.472657 8.523438 18.996094 18.996094 18.996094h57.277344c4.5625 19.476563 22.0625 34.027344 42.90625 34.027344s38.34375-14.550781 42.90625-34.027344h112.792968c-.816406 4.070313-1.269531 8.261719-1.324218 12.527344-.285157 21.738281 10.101562 42.285156 27.789062 54.96875 3.386719 2.425781 7.789062 2.75 11.484375.855469 3.683594-1.894531 5.96875-5.640625 5.96875-9.78125v-32.0625c0-3.960938 3.222656-7.183594 7.183594-7.183594h28.164062c3.960938 0 7.179688 3.222656 7.179688 7.183594v32.066406c0 4.148437 2.296875 7.902344 5.992187 9.804687 1.589844.820313 3.3125 1.226563 5.027344 1.226563 2.230469 0 4.445312-.6875 6.335938-2.039063 11.738281-8.382812 20.289062-20.273437 24.640624-33.671874 19.398438-1.417969 35.34375-15.4375 39.667969-33.894532h50.015625c10.472656 0 18.996094-8.523437 18.996094-19v-85.433594c0-12.96875-10.550781-23.519531-23.523438-23.519531zm-18.164062 56.488281c-3.976562 0-7.214844-3.234374-7.214844-7.214843s3.238282-7.21875 7.214844-7.21875h26.714844v14.4375h-26.714844zm-78.433594-56.488281h-13.839844v-9.792969zm-103.359375-129.066406c-.125-14.332031 5.707031-27.933594 15.894531-37.695313v21.988282c0 12.214844 9.9375 22.152344 22.152344 22.152344h28.164063c12.214843 0 22.15625-9.9375 22.15625-22.152344v-20.796875c9.328125 9.5625 14.71875 22.53125 14.71875 36.035156 0 28.421875-23.121094 51.542969-51.542969 51.542969-28.648438.003906-51.289062-22.433594-51.542969-51.074219zm-4.332031 93.613281h17.898438v35.449219h-17.898438zm-165.007812 182.460938c-16.046876 0-29.105469-13.058594-29.105469-29.105469s13.058593-29.101563 29.105469-29.101563c16.046874 0 29.101562 13.054688 29.101562 29.101563s-13.054688 29.105469-29.101562 29.105469zm46.90625-34.027344h-3.113282c-2.457031-21.992188-21.15625-39.152344-43.792968-39.152344-22.640626 0-41.339844 17.160156-43.792969 39.152344h-3.117188v-.914062c0-25.863282 21.042969-46.90625 46.910157-46.90625 25.863281 0 46.90625 21.042968 46.90625 46.90625zm14.972656 0v-.914062c0-34.117188-27.757813-61.878907-61.878906-61.878907-34.121094 0-61.878907 27.761719-61.878907 61.878907v.914062h-38.304687c-2.21875 0-4.023438-1.804688-4.023438-4.023438v-29.453124c2.445313 3.960937 6.332032 6.609374 11.128906 7.53125 1.253907.238281 2.539063.359374 3.867188.359374 3.984375 0 8.300781-1.085937 12.871094-3.242187 13.890625-6.554687 21.050781-18.515625 16.660156-27.824219v-.003906c-4.394531-9.308594-18.179688-11.382812-32.066406-4.832031-6.128906 2.894531-10.144532 6.566406-12.460938 10.449219v-4.832032c0-8.730468 5.894532-16.386718 14.355469-18.625l74.601563-19.984375c8.746093-2.34375 17.769531-3.53125 26.824218-3.53125h49.894532c4.132812 0 7.484374-3.351562 7.484374-7.484375 0-4.132812-3.351562-7.484375-7.484374-7.484375h-10.40625l35.644531-28.289062c5.824219-4.621094 13.125-7.164063 20.558593-7.164063h42.769532v35.453125h-54.136719c-4.132813 0-7.484375 3.351563-7.484375 7.484375 0 4.132813 3.351562 7.484375 7.484375 7.484375h87.007813v71.636719c-9.800782 6.753906-17.410157 15.867188-22.304688 26.375zm-147.238282-47.945312c3.875-1.828126 7.222657-2.386719 9.503907-2.386719.957031 0 1.726562.097656 2.265625.242187-.785156 1.722656-3.640625 5.128906-9.136719 7.71875-4.304687 2.035156-6.695313 1.882813-7.523437 1.722656-.925782-.179687-1.171876-.546874-1.355469-.941406-.765625-1.613281 1.863281-4.289062 6.246093-6.355468zm342.476563 112.972656v-23.546875c0-12.214844-9.9375-22.152344-22.152344-22.152344h-28.164062c-12.214844 0-22.152344 9.9375-22.152344 22.152344v23.554687c-9.878906-9.78125-15.488281-23.238281-15.304687-37.335937.238281-18.101563 9.542968-34.390625 24.890624-43.566407 2.039063-1.21875 3.40625-3.414062 3.609376-5.773437.015624-.179687.023437-.359375.027343-.539063 0-.039062.007813-.078124.007813-.117187v-157.734375c7.257812 2.640625 15.015625 4.03125 23.003906 4.03125 8.082031 0 15.832031-1.453125 23.003906-4.105469v146.074219c-6.070312-2.234375-12.558594-3.621094-19.335937-3.988281-4.140625-.195313-7.65625 2.9375-7.878907 7.066406-.226562 4.125 2.9375 7.65625 7.066407 7.878906 27.300781 1.488281 48.6875 24.097657 48.6875 51.46875 0 13.828125-5.609375 27.023438-15.308594 36.632813zm28.300781-52.78125c-1.386718-5.566406-3.492187-10.855469-6.1875-15.773438.542969-.105468 1.105469-.164062 1.671875-.164062 4.75 0 8.613281 3.867187 8.613281 8.613281 0 3.09375-1.644531 5.804687-4.097656 7.324219zm1.785156 21.085937c.125-1.636719.195313-3.285156.195313-4.941406 0-.265625-.015625-.527344-.019531-.792969 9.863281-2.824218 17.109375-11.917968 17.109375-22.675781 0-13.003906-10.578125-23.585937-23.585938-23.585937-3.761719 0-7.375.878906-10.628906 2.523437-1.28125-1.421875-2.621094-2.789063-4.019531-4.09375 4.394531-2.570313 9.40625-3.949219 14.648437-3.949219 16.046875 0 29.105469 13.058594 29.105469 29.105469 0 13.886719-9.777344 25.523437-22.804688 28.410156zm40.609376-33.332031h-3.117188c-2.453125-21.992188-21.152344-39.152344-43.792969-39.152344-7.886719 0-15.421875 2.058594-22.042969 5.898438v-9.070313c6.757813-3.601562 14.300782-5.496093 22.042969-5.496093 25.867188 0 46.910157 21.042968 46.910157 46.90625zm46.011718 0h-31.042968v-.914062c0-34.117188-27.757813-61.878907-61.878907-61.878907-7.597656 0-15.050781 1.386719-22.042969 4.050781v-39.269531h110.4375c4.714844 0 8.554688 3.835938 8.554688 8.554688v3.558593h-26.714844c-12.238281 0-22.191406 9.953126-22.191406 22.191407 0 12.234375 9.953125 22.1875 22.191406 22.1875h26.714844v37.496093c-.003906 2.21875-1.808594 4.023438-4.027344 4.023438zm0 0" data-original="#000000" class="active-path" data-old_color="#000000" fill="#FFFFFF"/><path d="m259.492188 222.308594h-14.96875c-4.136719 0-7.488282 3.351562-7.488282 7.488281 0 4.132813 3.351563 7.484375 7.488282 7.484375h14.96875c4.136718 0 7.484374-3.351562 7.484374-7.484375.003907-4.136719-3.347656-7.488281-7.484374-7.488281zm0 0" data-original="#000000" class="active-path" data-old_color="#000000" fill="#FFFFFF"/><path d="m119.179688 280.933594c-13.003907 0-23.585938 10.578125-23.585938 23.582031 0 13.007813 10.582031 23.585937 23.585938 23.585937 13.003906 0 23.585937-10.578124 23.585937-23.585937 0-13.003906-10.582031-23.582031-23.585937-23.582031zm0 32.199218c-4.75 0-8.613282-3.867187-8.613282-8.617187 0-4.746094 3.863282-8.613281 8.613282-8.613281s8.613281 3.867187 8.613281 8.613281c0 4.75-3.863281 8.617187-8.613281 8.617187zm0 0" data-original="#000000" class="active-path" data-old_color="#000000" fill="#FFFFFF"/></g> </svg>
